<svg width="35" height="35" viewBox="0 0 35 35" fill="none" xmlns="http://www.w3.org/2000/svg">
<g clip-path="url(#clip0)">
<path d="M34.8887 15.4844C34.8143 15.3065 34.7078 15.1446 34.5722 15.009L30.1987 10.6354C29.6285 10.0667 28.7068 10.0667 28.1366 10.6354C27.5664 11.2056 27.5664 12.1287 28.1366 12.6975L30.0222 14.5831H21.8759C21.0695 14.5831 20.4176 15.2364 20.4176 16.0414C20.4176 16.8464 21.0695 17.4997 21.8759 17.4997H30.0222L28.1365 19.3854C27.5663 19.9555 27.5663 20.8787 28.1365 21.4474C28.4209 21.7332 28.7942 21.8747 29.1676 21.8747C29.541 21.8747 29.9143 21.7333 30.1987 21.4474L34.5722 17.0739C34.7078 16.9397 34.8143 16.7778 34.8887 16.5984C35.0359 16.2427 35.0359 15.8402 34.8887 15.4844Z" fill="#3F51B5"/>
<path d="M24.7926 20.4167C23.9862 20.4167 23.3343 21.07 23.3343 21.875V29.1667H17.501V5.83331C17.501 5.19019 17.078 4.62144 16.4612 4.43625L11.3963 2.91669H23.3343V10.2084C23.3343 11.0134 23.9862 11.6667 24.7926 11.6667C25.599 11.6667 26.2509 11.0134 26.2509 10.2084V1.45838C26.2509 0.65331 25.599 0 24.7926 0H1.45929C1.40679 0 1.3601 0.021875 1.3091 0.0276855C1.24054 0.035 1.17785 0.0466211 1.11223 0.0626855C0.959102 0.102061 0.820537 0.161875 0.690791 0.243496C0.65873 0.263936 0.619355 0.265371 0.588731 0.288682C0.576973 0.2975 0.572598 0.313564 0.560908 0.322314C0.401973 0.447686 0.269287 0.600811 0.173037 0.783125C0.152598 0.8225 0.148223 0.864814 0.132227 0.905625C0.0855371 1.01644 0.034541 1.12437 0.017041 1.24687C0.00972656 1.29062 0.0228516 1.33144 0.021416 1.37375C0.0199805 1.40294 0.000976562 1.42919 0.000976562 1.45831V30.625C0.000976562 31.3206 0.492412 31.9186 1.17348 32.0542L15.7568 34.9709C15.8516 34.9913 15.9479 35.0001 16.0426 35.0001C16.3765 35.0001 16.7047 34.8849 16.9672 34.669C17.304 34.3919 17.5009 33.9792 17.5009 33.5417V32.0834H24.7926C25.599 32.0834 26.2509 31.4301 26.2509 30.6251V21.875C26.2509 21.07 25.599 20.4167 24.7926 20.4167Z" fill="#3F51B5"/>
</g>
<defs>
<clipPath id="clip0">
<rect width="35" height="35" fill="white"/>
</clipPath>
</defs>
</svg>
