<svg width="107" height="85" viewBox="0 0 107 85" fill="none" xmlns="http://www.w3.org/2000/svg">
<path d="M105.155 0.0689697H1.84483C0.826483 0.0689697 0 0.893608 0 1.9138V83.0862C0 84.1064 0.826483 84.931 1.84483 84.931H105.155C106.174 84.931 107 84.1064 107 83.0862V1.9138C107 0.893608 106.174 0.0689697 105.155 0.0689697ZM103.31 81.2414H3.68966V3.75863H103.31V81.2414Z" fill="#939393"/>
<path d="M29.5172 40.9098C35.1827 40.9098 39.7911 36.3014 39.7911 30.6377C39.7911 24.9704 35.1827 20.3621 29.5172 20.3621C23.8518 20.3621 19.2434 24.9704 19.2434 30.6359C19.2434 36.3014 23.8518 40.9098 29.5172 40.9098ZM29.5172 24.0517C33.1479 24.0517 36.1014 27.0071 36.1014 30.6359C36.1014 34.2647 33.1479 37.2201 29.5172 37.2201C25.8866 37.2201 22.9331 34.2665 22.9331 30.6377C22.9331 27.009 25.8866 24.0517 29.5172 24.0517Z" fill="#939393"/>
<path d="M12.9138 73.8621C13.3455 73.8621 13.7809 73.7108 14.1314 73.4027L44.226 46.9073L63.2315 65.9109C63.9528 66.6322 65.1187 66.6322 65.84 65.9109C66.5614 65.1895 66.5614 64.0236 65.84 63.3023L56.972 54.4342L73.9093 35.8863L94.6839 54.9305C95.4348 55.6186 96.6026 55.5669 97.2907 54.8161C97.9788 54.0652 97.929 52.8975 97.1763 52.2093L75.0384 31.9162C74.6768 31.586 74.1953 31.4218 73.7101 31.4329C73.2212 31.455 72.76 31.6709 72.4298 32.0325L54.3615 51.8219L45.6115 43.0719C44.9216 42.3838 43.8183 42.3487 43.0878 42.9907L11.6944 70.6318C10.9288 71.3052 10.855 72.4711 11.5283 73.2367C11.8936 73.6518 12.4028 73.8621 12.9138 73.8621Z" fill="#939393"/>
</svg>
