<svg width="35" height="35" viewBox="0 0 35 35" fill="none" xmlns="http://www.w3.org/2000/svg">
<g clip-path="url(#clip0)">
<path d="M32.6535 8.71566C31.0886 6.03463 28.9658 3.91188 26.2847 2.34702C23.6031 0.782233 20.6758 0 17.5005 0C14.3255 0 11.3973 0.782233 8.71622 2.34702C6.03495 3.91164 3.9122 6.03439 2.34726 8.71566C0.782233 11.3971 0 14.3253 0 17.5C0 20.6749 0.782472 23.6027 2.34702 26.2843C3.91188 28.9653 6.03463 31.088 8.7159 32.6531C11.3973 34.2178 14.3253 35.0001 17.5002 35.0001C20.6751 35.0001 23.6034 34.2178 26.2847 32.6531C28.9658 31.0886 31.0884 28.9653 32.6532 26.2843C34.2178 23.6029 34.9999 20.6748 34.9999 17.5C35 14.325 34.2178 11.3967 32.6535 8.71566ZM20.4174 28.4376C20.4174 28.65 20.3486 28.8249 20.212 28.9614C20.076 29.0979 19.9012 29.1663 19.6887 29.1663H15.3132C15.1006 29.1663 14.9258 29.0979 14.7891 28.9614C14.6523 28.8248 14.584 28.65 14.584 28.4376V24.0621C14.584 23.8496 14.6522 23.6747 14.7891 23.5383C14.9258 23.4019 15.1006 23.3337 15.3132 23.3337H19.6887C19.9012 23.3337 20.076 23.4019 20.212 23.5383C20.3486 23.6748 20.4174 23.8496 20.4174 24.0621V28.4376ZM25.9657 14.9706C25.7756 15.5327 25.5632 15.9925 25.3277 16.3493C25.0924 16.7063 24.7541 17.071 24.3134 17.443C23.8736 17.8151 23.524 18.0812 23.2651 18.2409C23.0073 18.4002 22.6347 18.6171 22.1491 18.8902C21.6477 19.1786 21.2341 19.5547 20.9077 20.0183C20.581 20.4815 20.4177 20.8573 20.4177 21.1457C20.4177 21.3588 20.3489 21.5335 20.2123 21.6701C20.076 21.8067 19.9013 21.8749 19.6887 21.8749H15.3134C15.1008 21.8749 14.926 21.8067 14.7893 21.6701C14.6524 21.5335 14.5844 21.3588 14.5844 21.1457V20.3253C14.5844 19.3075 14.9829 18.3539 15.7805 17.4655C16.5781 16.5767 17.4554 15.9197 18.4126 15.4943C19.1413 15.1602 19.658 14.8183 19.9617 14.469C20.266 14.1196 20.4179 13.6558 20.4179 13.0789C20.4179 12.5774 20.1328 12.1294 19.563 11.7341C18.9932 11.3393 18.3443 11.1419 17.6149 11.1419C16.8248 11.1419 16.1717 11.3242 15.6551 11.689C15.1537 12.0533 14.5006 12.7522 13.6954 13.7851C13.5587 13.9675 13.3688 14.0589 13.1256 14.0589C12.9434 14.0589 12.799 14.0134 12.6928 13.9225L9.68513 11.6437C9.3358 11.3702 9.27506 11.0513 9.50268 10.6867C11.4474 7.45097 14.2652 5.83311 17.9565 5.83311C19.2784 5.83311 20.5698 6.14461 21.8306 6.76754C23.0913 7.39015 24.1435 8.27135 24.9868 9.41082C25.8292 10.5499 26.2515 11.7882 26.2515 13.125C26.2503 13.7934 26.155 14.4083 25.9657 14.9706Z" fill="#3F51B5"/>
</g>
<defs>
<clipPath id="clip0">
<rect width="35" height="35" fill="white"/>
</clipPath>
</defs>
</svg>
